<svg xmlns="http://www.w3.org/2000/svg" viewBox="0 0 421.4 421.4" id="svg8">
  <circle r="210.7" cy="210.7" cx="210.7" id="path870-0" fill="#1ae344" fill-opacity=".25" stroke-width="2.8" stroke-linecap="round" stroke-linejoin="round" stroke-dashoffset="47.8" stroke-opacity=".7"/>
  <path id="path892-3-9" d="M309.6 94.4a54.3 65.5 0 0 0-54.4 65.5 54.3 65.5 0 0 0 35.8 61.5 21.8 50.4 0 0 0 .4 4.4 104.2 63.3 0 0 0-79.4 47.8h203a104.2 63.3 0 0 0-81.7-48 21.8 50.4 0 0 0 .7-7.1 54.3 65.5 0 0 0 29.8-58.6 54.3 65.5 0 0 0-54.3-65.5z" fill="#c62cee" fill-opacity=".9" stroke-width=".7" stroke-linecap="round" stroke-linejoin="round" stroke-dashoffset="47.8" stroke-opacity=".7"/>
  <path id="path892-3-5" d="M108.3 92.7a54.3 65.5 0 0 0-54.5 65.6 54.3 65.5 0 0 0 36 61.5 21.8 50.4 0 0 0 .4 4.4A104.2 63.3 0 0 0 10.8 272h203a104.2 63.3 0 0 0-81.7-48 21.8 50.4 0 0 0 .7-7.2 54.3 65.5 0 0 0 29.9-58.5 54.3 65.5 0 0 0-54.3-65.6z" fill="#2c65ee" fill-opacity=".9" stroke-width=".7" stroke-linecap="round" stroke-linejoin="round" stroke-dashoffset="47.8" stroke-opacity=".7"/>
  <path id="path892-3" d="M207 120.6a54.3 65.5 0 0 0-54.3 65.5 54.3 65.5 0 0 0 35.7 61.5 21.8 50.4 0 0 0 .5 4.4 104.2 63.3 0 0 0-79.5 47.9h203a104.2 63.3 0 0 0-81.6-48 21.8 50.4 0 0 0 .6-7.2 54.3 65.5 0 0 0 30-58.6 54.3 65.5 0 0 0-54.4-65.5z" fill="#2cee65" fill-opacity=".9" stroke-width=".7" stroke-linecap="round" stroke-linejoin="round" stroke-dashoffset="47.8" stroke-opacity=".7"/>
</svg>
