<svg xmlns="http://www.w3.org/2000/svg" xmlns:xlink="http://www.w3.org/1999/xlink" viewBox="0 0 969 564.2" id="svg8">
 <style>

 </style>
  <defs id="defs2">
    <linearGradient id="linearGradient1158">
      <stop offset="0" id="stop1154" stop-color="#28e7df" stop-opacity=".1"/>
      <stop offset="1" id="stop1156" stop-color="#b9f7f5" stop-opacity=".3"/>
    </linearGradient>
    <linearGradient id="linearGradient6071">
      <stop offset="0" id="stop6067" stop-color="#28e7df" stop-opacity=".9"/>
      <stop offset="1" id="stop6069" stop-color="#2ba7e1" stop-opacity=".6"/>
    </linearGradient>
    <linearGradient id="linearGradient1722">
      <stop offset="0" id="stop1718" stop-color="#24ffff" stop-opacity=".9"/>
      <stop offset="1" id="stop1720" stop-color="#83ffff" stop-opacity=".6"/>
    </linearGradient>
    <linearGradient id="linearGradient983">
      <stop offset="0" id="stop979" stop-color="#756a58" stop-opacity=".4"/>
      <stop id="stop987" offset=".9" stop-color="#6a3d2f" stop-opacity=".1"/>
      <stop offset="1" id="stop981" stop-color="#f0efee" stop-opacity="0"/>
    </linearGradient>
    <linearGradient id="linearGradient947">
      <stop offset="0" id="stop943" stop-color="#eda963"/>
      <stop id="stop951" offset=".6" stop-color="#d3c0b3" stop-opacity=".5"/>
      <stop offset="1" id="stop945" stop-color="#ebc9b3" stop-opacity="0"/>
    </linearGradient>
    <radialGradient xlink:href="#linearGradient947" id="radialGradient949" cx="-145.7" cy="-99.2" fx="-145.7" fy="-99.2" r="143.7" gradientTransform="matrix(3.08673 -.02172 .00227 .36652 444.5 -33.5)" gradientUnits="userSpaceOnUse"/>
    <linearGradient xlink:href="#linearGradient983" id="linearGradient985" x1="-195.7" y1="-20.9" x2="2.2" y2="-21.7" gradientUnits="userSpaceOnUse" gradientTransform="translate(128.1 -2.8)"/>
    <radialGradient xlink:href="#linearGradient947" id="radialGradient1057" gradientUnits="userSpaceOnUse" gradientTransform="matrix(3.08673 -.02172 .00227 .36652 444.5 -33.5)" cx="-145.7" cy="-99.2" fx="-145.7" fy="-99.2" r="143.7"/>
    <linearGradient xlink:href="#linearGradient983" id="linearGradient1059" gradientUnits="userSpaceOnUse" gradientTransform="translate(128.1 -2.8)" x1="-195.7" y1="-20.9" x2="2.2" y2="-21.7"/>
    <clipPath id="clipPath1184"/>
    <radialGradient xlink:href="#linearGradient1722" id="radialGradient1724" cx="241.6" cy="429.1" fx="241.6" fy="429.1" r="541" gradientTransform="matrix(.95556 .12353 -.09576 .74078 51.8 3.1)" gradientUnits="userSpaceOnUse"/>
    <linearGradient xlink:href="#linearGradient6071" id="linearGradient897" x1="-157.6" y1="470.5" x2="642.1" y2="470.5" gradientUnits="userSpaceOnUse"/>
    <linearGradient gradientTransform="matrix(.53157 .01591 -.01296 .6526 245.6 168.2)" xlink:href="#linearGradient6071" id="linearGradient897-0" x1="-157.6" y1="470.5" x2="642.1" y2="470.5" gradientUnits="userSpaceOnUse"/>
    <linearGradient gradientTransform="matrix(.53157 .01847 -.01296 .75752 45.8 71.5)" xlink:href="#linearGradient6071" id="linearGradient897-0-0" x1="-157.6" y1="470.5" x2="642.1" y2="470.5" gradientUnits="userSpaceOnUse"/>
    <radialGradient xlink:href="#linearGradient1158" id="radialGradient1160" cx="297" cy="648" fx="297" fy="648" r="212.9" gradientTransform="matrix(.9574 0 0 .33318 67.8 246.9)" gradientUnits="userSpaceOnUse"/>
  </defs>
  <g id="layer1" transform="translate(235.2 -5.3)">
    <path d="M731.9 277.8c0 85.9 21.4 148-80 208.7-101.4 60.7-235.7 48.9-379.2 48.9s-311.4 70-412.9 9.2c-101.4-60.7-95-122-95-207.8 0-86 46.5-176 148-236.7C14.2 39.4 111 5.3 254.4 5.3c143.5 0 213.6 9.1 315 69.9C671 135.9 732 191.9 732 277.8z" id="path935" opacity=".9" fill="url(#radialGradient1724)" fill-opacity=".9" stroke-width=".6" stroke-linecap="round" stroke-linejoin="round" stroke-dashoffset="47.8"/>
    <path d="M641.7 474.8C632.6 525.3 537 521 477 533c-62.5 12.7-130.6 9.1-195.9 13.6-42.7 3-85.3 9.3-128.3 8.7-104.3-1.3-283.2 45-309.4-29.1-9.2-25.8 59.2-30.6 87.1-47.6 22.3-13.6 38.5-33 63.8-43.2 96.6-39.2 210.4-60 319.7-63 31.5-.8 60.1 19.3 93.3 13.4 121-21.7 107.2 10.6 154.4 31 31.2 13.4 85.5 28.3 80.1 57.9z" id="path10" fill="url(#linearGradient897)" stroke="#000" stroke-width="0" stroke-linecap="round" stroke-linejoin="round" stroke-dashoffset="47.8" stroke-opacity=".1"/>
    <path d="M380.8 443c-5.5 38.1-56.3 33.1-88.4 41.2-33.3 8.4-69.5 4.5-104.2 6.7-22.8 1.4-45.5 5.4-68.4 4.2-55.4-3-151.1 29-164.1-27.8-4.5-19.7 31.9-22 47-34.4 12-9.9 20.8-24.3 34.4-31.6a368 368 0 0 1 170.8-41.7c16.7 0 31.7 15.6 49.4 11.8 64.6-14.2 56.8 10 81.7 26.3 16.4 10.8 45 23 41.8 45.4z" id="path10-6-6" opacity=".8" fill="url(#linearGradient897-0-0)" stroke="#000" stroke-width="0" stroke-linecap="round" stroke-linejoin="round" stroke-dashoffset="47.8" stroke-opacity=".1"/>
    <g id="boat" transform="matrix(1.3063 0 0 1.43234 231.7 463.5)">
      <path id="rect15" d="M-121.3-70.1c.4 18.9 34 36.7 65.4 49C-36.6-13.4-26.8-9-.6-7.2l47-.7c26-1.9 52.2-9 71.3-16.4 31.4-12.2 48.2-26.9 48.5-45.7z" fill="#e7e6e7" stroke="#482424" stroke-width=".5" stroke-linecap="round" stroke-linejoin="round" stroke-dashoffset="47.8" stroke-opacity=".5"/>
      <path id="rect15-3-6" d="M-121.3-70.1c.6 10.6 51.6 19.6 120.7 21.4h47c68.7-1.8 119.3-10.8 119.8-21.4 0 0-95-6.5-142.6-6.6-48.4 0-144.9 6.6-144.9 6.6z" fill="url(#radialGradient1057)" fill-opacity=".9" stroke="#000" stroke-width="0" stroke-linecap="round" stroke-linejoin="round" stroke-dashoffset="47.8" stroke-opacity=".1"/>
      <path id="path899-5-2" d="M164.3-70.1s-.4-1-4-1.8c-6.4-1.4-19-2.8-27.3-3.6-10.3-1-21.6-1.6-32.1-2.3-24.8-1.6-49.9-2.7-84-2.5-20.6.2-41.3.6-63.3 1.5l-24.8 1.4c-6.6.4-28.2 1.5-35.9 3.2-2.5.5-8.6 1-10.3 1.5-1.5.4-3.1.9-3 1.3 0 .5 1.8 1-.9 1.3" fill="#d5b88b" stroke-width=".6" stroke-opacity=".4"/>
      <path id="rect15-3-7" d="M166.2-70.1c-.6-5.4-51.6-11.6-120.8-12.5l-46.9.7c-68.8.9-119.3 6.4-119.8 11.8 0 0-1.5 0 3.3-.3 11-.4 37.1-1.6 61.7-3.1 29.1-1.9 62-3 84.7-3 21.9.1 54 1 81.8 3 30.7 2.1 56 3.4 56 3.4z" fill="maroon" fill-opacity=".7" stroke="#000" stroke-width="0" stroke-linecap="round" stroke-linejoin="round" stroke-dashoffset="47.8" stroke-opacity=".1"/>
      <path id="path899" d="M-121.3-70.1s13.4 13.6 38.1 23.5c28.2 11.4 70.5 16 119.4 13.9 28.4-1.2 58.5-1.6 90.4-13.1 13.1-4.8 24.8-12 39.6-24.3" fill="none" stroke="#3c1f04" stroke-width="1.5" stroke-opacity=".4"/>
      <path id="rect15-3" d="M-121.3-70.1c.6 11 51.6 23.8 120.7 25.5l47-1.3C115-47.7 165.7-59 166.2-70c0 0-29.8 7.7-65 12.3a669.2 669.2 0 0 1-166.5-1.4c-30.7-4.4-56-11-56-11z" fill="#6d0f0f" stroke="#000" stroke-width="0" stroke-linecap="round" stroke-linejoin="round" stroke-dashoffset="47.8" stroke-opacity=".1"/>
      <path id="path899-3" d="M-121.3-70.2s18.2 24.7 43 33.7A303.5 303.5 0 0 0 37.2-20c28.3-1 65.1-4.1 94-18.9 9.6-4.8 16.7-11 24.5-19.2 3.3-3.5 6-8.8 10.4-12.2" fill="none" stroke="#3c1f04" stroke-width="1.4" stroke-opacity=".4"/>
      <path id="path899-5" d="M-121.3-70.1s.4 6.3 4.1 11.3a108 108 0 0 0 27.5 22.7c10.3 6.2 21.6 10 32.3 14.2C-32.5-11.9-7.3-5.1 27-6.4 47.8-7.3 68.6-10 90.8-16c8.1-2.3 16.4-5.9 25-8.7 6.6-2.2 28.3-9 36-19.8 2.7-3.6 8.7-6.7 10.5-9.7 1.5-2.6 3-5.3 3-7.8 0-3.2-1.8-6.1.9-8.2" fill="url(#linearGradient1059)" stroke-width="1.5" stroke-opacity=".4"/>
    </g>
    <path d="M679.2 189c-3.8 16.5-37.8 13.9-52 25.8-7.4 6.4-6.8 18.4-15.8 23-17 9-40.6 0-60.1 3.7-15.4 3-28.3 15-44 14.5-28.2-1-50.8-20.2-75.6-31.1-25.8-11.4-71.4-12-76-35.9-4-21 28-39.2 51.7-47.5 16.6-5.8 36.4 5.6 53.8 1.9 21.3-4.6 34.3-28.2 56.3-28.6 25.7-.5 42.2 28.2 67.7 31 15.8 1.8 31.6-13.8 46.7-9.2 24.7 7.4 52.4 31 47.3 52.4z" id="path935-3" opacity=".9" fill="#d2ffff" fill-opacity=".9" stroke-width=".2" stroke-linecap="round" stroke-linejoin="round" stroke-dashoffset="47.8"/>
    <path d="M160.7 134.3c-3.2 12-31.4 10.1-43.2 18.9-6.2 4.6-5.8 13.4-13.3 16.9-14.1 6.5-33.7-.1-50 2.6-12.8 2.1-23.5 11-36.6 10.7-23.4-.8-42.3-14.8-63-22.9-21.3-8.3-59.3-8.7-63.2-26.2-3.3-15.5 26.2-26.2 43-34.8 12-6.1 26.1-8.2 39.5-11.2C-8.9 84.6 8.4 80 26.1 80c21 0 41.1 6.8 61.7 10.2 11.2 2 23.6.8 33.5 5.8 17 8.4 43.6 22.6 39.4 38.4z" id="path935-3-6" opacity=".9" fill="#e7ffff" fill-opacity=".8" stroke-width=".1" stroke-linecap="round" stroke-linejoin="round" stroke-dashoffset="47.8"/>
    <path d="M-23.6 178.5c-.6 11.4 0 23.2-3.7 33.9-2.5 6.9-5.2 14.4-11.9 18.1-12.7 7-30.2 0-44.8 2.9-11.5 2.3-21.1 11.8-33 11.4a88 88 0 0 1-56.3-24.5 60 60 0 0 1-13.6-26.6c-3.8-12.5-11.2-28-4.5-39.1 6.7-11 23.4-8.8 35.4-12 15.3-4 31.4-13.3 46.7-9 13.2 3.6 18.2 24.1 31.4 27.8 17.7 4.9 39.9-23 54-10.7 6.8 5.9.7 18.6.3 27.8z" id="path935-3-6-7" opacity=".9" fill="#e9ffff" fill-opacity=".7" stroke-width=".1" stroke-linecap="round" stroke-linejoin="round" stroke-dashoffset="47.8"/>
    <path d="M555.7 475.4c-5.2 38-53.8 33-84.6 41.1-32 8.5-66.5 4.5-99.8 6.7-21.8 1.4-43.6 5.5-65.5 4.2-53-2.9-144.6 29-157-27.8-4.4-19.7 30.5-22 44.9-34.4 11.5-9.9 20-24.3 33-31.6A340.2 340.2 0 0 1 390 392c16.1 0 30.4 15.7 47.4 11.8 61.9-14.2 54.4 10 78.2 26.3 15.7 10.8 43.1 23 40 45.4z" id="path10-6-9" opacity=".5" fill="url(#radialGradient1160)" stroke="#000" stroke-width="0" stroke-linecap="round" stroke-linejoin="round" stroke-dashoffset="47.8" stroke-opacity=".1"/>
    <path d="M580.6 488.2c-5.5 32.8-56.3 28.5-88.4 35.5-33.4 7.2-69.5 3.8-104.3 5.7-22.7 1.2-45.4 4.7-68.3 3.7-55.4-2.6-151.1 24.9-164.1-24-4.5-17 31.9-19 47-29.6 12-8.5 20.8-21 34.4-27.2a416.4 416.4 0 0 1 170.7-36c16.8 0 31.8 13.5 49.5 10.2 64.6-12.2 56.8 8.6 81.7 22.7 16.4 9.2 45 19.8 41.8 39z" id="path10-6" opacity=".8" fill="url(#linearGradient897-0)" stroke="#000" stroke-width="0" stroke-linecap="round" stroke-linejoin="round" stroke-dashoffset="47.8" stroke-opacity=".1"/>
  </g>
</svg>
