<svg xmlns="http://www.w3.org/2000/svg" viewBox="0 0 917.7 833.7" id="svg8">
  <g id="layer1" transform="translate(456.8 542.3)" stroke-linecap="round" stroke-linejoin="round" stroke-dashoffset="47.8">
    <circle id= cx="-246.1" cy="77.7" r="210.7" fill="#1ae344" fill-opacity=".4" stroke-width="2.8" stroke-opacity=".7"/>
    <circle id="path870" cx="202.9" cy="86.5" r="204.9" fill="#1ae344" fill-opacity=".4" stroke-width="2.8" stroke-opacity=".7"/>
    <ellipse id="path10-3" cx="122.5" cy="58.1" rx="62.8" ry="118.4" transform="matrix(.9525 .30453 -.21911 .9757 0 0)" fill="#2cee65" fill-opacity=".9" stroke-width="2.5" stroke-opacity=".7"/>
    <ellipse id="path10-6" cx="-35.7" cy="203.1" rx="82.3" ry="122.9" transform="rotate(-90)" fill="#2cee65" fill-opacity=".9" stroke-width="2.9" stroke-opacity=".7"/>
    <circle id="path853" cx="132.9" cy="44.8" r="38.2" fill="#00cdcd" fill-opacity=".9" stroke-width="2.6" stroke-opacity=".7"/>
    <ellipse id="path10-3-5" cx="-259.1" cy="-153.7" rx="62.8" ry="118.4" transform="matrix(-.97716 .21252 -.2981 -.95454 0 0)" fill="#2cee65" fill-opacity=".9" stroke-width="2.5" stroke-opacity=".7"/>
    <circle id="path853-7" cx="265.3" cy="29.7" r="35.8" fill="#00cdcd" fill-opacity=".9" stroke-width="2.4" stroke-opacity=".7"/>
    <path d="M-147.2-38.6a54.3 65.5 0 0 0-54.4 65.5 54.3 65.5 0 0 0 35.8 61.5 21.8 50.4 0 0 0 .4 4.4 104.2 63.3 0 0 0-79.4 47.8h203a104.2 63.3 0 0 0-81.7-48 21.8 50.4 0 0 0 .7-7.1A54.3 65.5 0 0 0-93 26.9a54.3 65.5 0 0 0-54.3-65.5z" id="path892-3-9" fill="#c62cee" fill-opacity=".9" stroke-width=".7" stroke-opacity=".7"/>
    <path d="M-348.5-40.3A54.3 65.5 0 0 0-403 25.3 54.3 65.5 0 0 0-367 86.8a21.8 50.4 0 0 0 .4 4.4A104.2 63.3 0 0 0-446 139h203a104.2 63.3 0 0 0-81.7-48 21.8 50.4 0 0 0 .7-7.2 54.3 65.5 0 0 0 29.9-58.5 54.3 65.5 0 0 0-54.3-65.6z" id="path892-3-5" fill="#2c65ee" fill-opacity=".9" stroke-width=".7" stroke-opacity=".7"/>
    <path d="M-249.8-12.4a54.3 65.5 0 0 0-54.3 65.5 54.3 65.5 0 0 0 35.7 61.5 21.8 50.4 0 0 0 .5 4.4 104.2 63.3 0 0 0-79.5 47.9h203a104.2 63.3 0 0 0-81.6-48 21.8 50.4 0 0 0 .6-7.2 54.3 65.5 0 0 0 30-58.6 54.3 65.5 0 0 0-54.4-65.5z" id="path892-3" fill="#2cee65" fill-opacity=".9" stroke-width=".7" stroke-opacity=".7"/>
    <circle id="path870-0-3" cx="250.2" cy="-331.6" r="210.7" fill="#1ae344" fill-opacity=".4" stroke-width="2.8" stroke-opacity=".7"/>
    <path id="icon-1" d="M448.7-304.4c-49.4 65.4-134.5 43.7-202 49-65.9 6.8-121.9-31.5-175.7-67.7-20.9-26.4 26-42.9 11-77.7 27.4-45.5 98.4 4.1 144.5-3 72.3 16.5 147.3 31.3 213 70a42.9 42.9 0 0 1 9.2 29.4z" id="path1331-2" fill="#00c4dd" fill-opacity=".5" stroke="#000" stroke-width=".1" stroke-opacity=".1"/>
    <path d="M432.3-307.6c-11.3-1-9.4 25.9-21.7 14.9-5.4 19.9-29.7 18-46 20.2-15.9 4.8-32.2 4-48.4 3-14 .3-27.8 2.6-41.6 4.6-18.3-5.9-38.6 4.8-56.2-4.8-24.9-6.6-53.3-1.5-75.2-17.6-11.5-6.7-21-16.3-32.2-23.2-6.4 7-12.1-16.2-13.7-4.9-12.2-3.4-39.4-13.9-25.3-29.2 6.9-.5 15 14.3 19.9 3.7-17.2-11.3 14.3-21.5 5.1-34.5 1.6-12.7-22.2-21.4-4.6-30 18.3-1.5 35.2 9.8 54 8.1 18.5-2.3 36.4.2 54.3 5 24.8-1.2 48.8 7 72.7 12.6 13.6 7 37 .8 43 17.8-.7 7 4-13.9 13-8.4 13 3.2 26 5.7 38.6 8.9 12.5 6.3-3.5 11.5-4 12.5 9.6.3 20.2 6.4 27.6-.7 14.7 5 25.3 18.4 40 23.1 6.7 7.4-7.7 15.3.7 18.9z" id="path1331" fill="#006673" stroke="#000" stroke-width="0" stroke-opacity=".1"/>
  </g>
</svg>
